<svg width="251" height="29" viewBox="0 0 251 29" fill="none" xmlns="http://www.w3.org/2000/svg">
<path d="M0.1 28V4.76837e-07H25.8667V8.03333H10.1667V10.7667H25.2667V17.2333H10.1667V19.9333H25.8667V28H0.1ZM36.8172 28L26.7172 4.76837e-07H37.1172L43.3505 18.5333H44.4172L50.6505 4.76837e-07H61.0839L50.9505 28H36.8172ZM62.2484 28V4.76837e-07H88.0151V8.03333H72.3151V10.7667H87.4151V17.2333H72.3151V19.9333H88.0151V28H62.2484ZM90.2172 28V4.76837e-07H101.751L109.817 13.9H110.751V4.76837e-07H120.584V28H109.284L100.951 14.1H100.051V28H90.2172ZM152.523 4.76837e-07V8.4H142.59V28H132.49V8.4H122.59V4.76837e-07H152.523ZM169.347 28.9333C159.381 28.9333 154.514 24.8 154.514 15.6V4.76837e-07H164.681V15.3667C164.681 18.5 165.981 20.5 169.347 20.5C172.714 20.5 174.081 18.5 174.081 15.3667V4.76837e-07H184.181V15.5333C184.181 24.8 179.314 28.9333 169.347 28.9333ZM216.183 28H206.283L202.75 21.1333H196.417V28H186.35V4.76837e-07H202.817C210.683 4.76837e-07 215.15 3.26667 215.15 10.9333C215.15 14.6 213.55 17.2667 211.317 18.9333L216.183 28ZM196.417 8.36667V13.6333H202.083C204.083 13.6333 205.05 12.6333 205.05 11C205.05 9.36667 204.083 8.36667 202.083 8.36667H196.417ZM240.338 28L239.271 24.6333H227.871L226.805 28H216.405L226.505 4.76837e-07H240.638L250.771 28H240.338ZM230.238 17.2H236.905L234.438 9.46667H232.705L230.238 17.2Z" fill="white"/>
</svg>
